<?xml version="1.0" standalone="no"?>
<!DOCTYPE svg PUBLIC "-//W3C//DTD SVG 20010904//EN"
 "http://www.w3.org/TR/2001/REC-SVG-20010904/DTD/svg10.dtd">
<svg version="1.0" xmlns="http://www.w3.org/2000/svg"
 width="1024.000000pt" height="1024.000000pt" viewBox="0 0 1024.000000 1024.000000"
 preserveAspectRatio="xMidYMid meet">
<metadata>
Created by potrace 1.11, written by Peter Selinger 2001-2013
</metadata>
<g transform="translate(0.000000,1024.000000) scale(0.100000,-0.100000)"
fill="#000000" stroke="none">
<path d="M7688 10127 c-53 -62 -106 -124 -119 -138 -13 -14 -48 -52 -78 -85
-107 -118 -299 -321 -452 -478 -182 -187 -244 -251 -590 -607 -141 -145 -276
-285 -300 -310 -24 -26 -112 -118 -195 -205 -83 -88 -168 -177 -189 -199 -91
-97 -230 -247 -244 -264 -9 -10 -56 -62 -106 -116 -121 -132 -123 -135 -175
-195 -25 -28 -56 -64 -70 -78 -167 -176 -656 -772 -920 -1122 -328 -435 -715
-1012 -886 -1319 -11 -18 -24 -41 -29 -50 -21 -34 -165 -290 -214 -381 -108
-201 -386 -776 -406 -840 -1 -3 -14 -32 -29 -65 -116 -256 -357 -915 -445
-1223 -11 -37 -36 -123 -56 -192 -56 -196 -166 -636 -188 -760 -3 -14 -8 -36
-11 -50 -8 -34 -9 -42 -61 -319 -37 -203 -71 -412 -101 -636 -3 -22 -7 -51 -9
-65 -2 -14 -6 -52 -10 -84 -3 -33 -7 -73 -10 -90 -12 -93 -16 -127 -21 -186
l-5 -65 81 110 c110 148 230 327 392 585 163 259 164 261 172 330 20 162 21
168 27 173 2 3 54 7 114 10 185 11 377 50 572 118 81 28 334 147 428 201 116
67 348 231 449 318 334 288 604 579 928 1002 54 70 98 130 98 133 0 3 -17 4
-37 1 -94 -13 -214 -26 -278 -30 -60 -3 -65 -2 -35 6 305 89 526 204 780 406
83 66 334 327 416 432 135 174 280 396 386 590 73 133 169 320 165 320 -2 0
-30 -9 -63 -21 -256 -90 -448 -145 -333 -95 312 133 625 377 858 669 94 117
198 271 277 413 l23 42 -32 -8 c-93 -24 -157 -40 -183 -44 -165 -31 -167 -31
-282 -41 -42 -4 -75 -5 -72 -2 3 3 34 15 69 27 124 42 353 166 447 243 11 9
39 32 64 52 246 200 473 506 655 880 46 96 125 273 125 281 0 2 -138 -29 -190
-41 -32 -8 -227 -46 -260 -51 -19 -3 -73 -11 -120 -19 -47 -8 -112 -17 -145
-20 -33 -4 -71 -8 -85 -11 -14 -2 -56 -6 -95 -9 -38 -3 -80 -8 -92 -11 -53
-11 -16 7 75 36 586 190 1028 533 1245 965 69 136 127 312 142 430 3 28 9 66
12 85 11 73 5 330 -11 405 -2 11 -7 41 -10 66 -27 201 -149 520 -306 799 -50
88 -213 327 -288 422 l-69 87 -95 -112z m199 -249 c264 -389 411 -750 448
-1098 6 -63 7 -263 1 -300 -3 -14 -7 -47 -11 -75 -7 -60 -29 -148 -57 -230
-172 -501 -645 -892 -1335 -1104 -231 -70 -563 -135 -798 -156 -38 -3 -88 -8
-110 -10 -22 -3 -73 -6 -113 -7 -83 -2 -76 -13 13 -23 33 -3 71 -8 85 -11 14
-2 48 -6 75 -9 28 -3 73 -7 100 -11 389 -44 898 -35 1250 21 11 1 43 6 70 10
28 4 92 16 144 26 52 11 96 17 98 15 16 -15 -250 -467 -309 -527 -8 -8 -19
-21 -24 -30 -5 -9 -31 -42 -59 -74 -248 -288 -526 -469 -842 -549 -173 -44
-233 -51 -438 -51 -168 0 -245 6 -475 39 -19 3 -62 8 -95 11 -57 6 -79 9 -157
19 -18 3 -58 8 -88 11 -55 6 -189 22 -245 30 -52 7 -198 24 -260 31 -33 3 -80
9 -103 14 -24 4 -40 4 -35 1 7 -7 206 -55 273 -66 14 -3 70 -16 125 -29 55
-14 111 -27 125 -30 14 -2 156 -35 315 -71 312 -72 403 -92 450 -101 17 -2 37
-7 45 -9 31 -8 205 -32 298 -41 193 -17 551 -5 646 23 18 5 18 4 0 -26 -39
-66 -187 -244 -282 -339 -352 -351 -793 -557 -1377 -642 -44 -7 -87 -13 -95
-15 -8 -2 -51 -6 -95 -10 -44 -3 -96 -8 -115 -10 -80 -7 -291 -17 -650 -30
-231 -8 -410 -14 -553 -20 l-128 -5 42 78 c23 42 60 106 81 141 21 34 38 64
38 66 0 19 337 556 540 860 168 252 187 279 340 495 47 65 92 129 100 141 43
62 412 554 506 675 139 178 495 627 503 634 3 3 44 52 91 110 46 58 87 107 90
110 3 3 37 43 75 90 80 97 428 512 461 550 13 14 104 122 204 240 100 118 192
226 204 240 12 14 84 99 160 190 76 91 148 176 160 190 11 14 41 50 66 80 25
30 53 64 62 75 122 147 382 486 440 576 17 27 32 49 33 49 2 0 43 -60 92 -132z
m-1048 -865 c-46 -54 -85 -100 -89 -103 -3 -3 -39 -45 -80 -95 -41 -49 -77
-92 -80 -95 -3 -3 -53 -61 -110 -130 -58 -69 -107 -127 -110 -130 -14 -13
-562 -668 -637 -760 -6 -8 -47 -57 -89 -109 -289 -353 -835 -1063 -1057 -1376
-191 -269 -246 -348 -376 -543 -974 -1461 -1574 -2777 -1827 -4007 -2 -11 -6
-31 -9 -45 -24 -111 -75 -420 -82 -492 -3 -38 -11 -72 -17 -77 -6 -5 -49 -12
-96 -16 -47 -3 -97 -8 -112 -9 -16 -2 -28 0 -28 3 0 3 9 53 20 111 11 58 22
116 25 130 18 96 53 258 90 415 10 39 19 81 22 94 2 14 13 57 24 97 11 40 22
82 24 94 5 28 52 199 82 300 14 47 29 99 33 115 83 313 326 965 525 1410 63
142 282 589 324 665 11 19 59 106 106 194 214 391 501 848 772 1226 59 84 115
162 123 173 15 23 280 374 304 404 8 10 63 79 122 153 122 154 217 271 255
315 15 16 98 113 185 215 180 211 361 416 508 574 56 60 109 118 119 129 10
12 73 80 140 151 186 198 295 312 604 632 232 242 468 484 471 484 2 0 -34
-44 -79 -97z m-690 -4555 c-53 -100 -247 -409 -291 -463 -4 -5 -34 -44 -65
-85 -350 -458 -747 -728 -1223 -833 -164 -37 -218 -41 -470 -42 -199 0 -289 4
-460 20 -72 6 -237 19 -385 30 -44 3 -93 8 -110 11 -23 4 -26 2 -14 -5 13 -8
200 -57 409 -106 8 -2 107 -26 220 -54 113 -28 219 -53 235 -55 17 -3 54 -10
84 -16 30 -5 79 -13 109 -16 31 -3 65 -8 76 -11 12 -3 120 -7 241 -9 121 -3
222 -7 225 -9 5 -4 -3 -15 -140 -180 -250 -302 -549 -595 -800 -784 -52 -39
-99 -74 -105 -78 -5 -5 -46 -31 -90 -59 -351 -225 -685 -344 -1043 -370 -102
-7 -98 -10 -82 61 5 22 11 60 15 85 3 25 10 61 15 80 5 19 11 49 13 65 12 74
82 358 128 520 140 490 326 986 559 1485 78 168 276 560 355 703 l38 68 86 -6
c47 -3 109 -7 136 -10 81 -7 177 -15 220 -20 22 -2 78 -6 125 -10 47 -4 101
-8 120 -10 19 -2 74 -6 121 -10 48 -4 100 -8 115 -10 225 -27 759 -27 946 0
18 2 67 9 108 14 41 6 84 12 95 15 11 2 38 7 60 11 22 4 51 9 65 12 77 14 167
36 255 61 124 37 118 36 104 10z m-3940 -3555 c0 -5 -17 -34 -37 -65 -20 -32
-75 -118 -122 -192 -47 -74 -86 -133 -88 -132 -2 3 8 80 33 236 3 19 8 57 12
83 3 26 9 50 13 52 4 2 42 7 86 11 43 4 81 8 83 10 7 7 21 4 20 -3z"/>
</g>
</svg>
